<mxfile host="app.diagrams.net" modified="2024-03-24T18:37:21.523Z" agent="Mozilla/5.0 (Windows NT 10.0; Win64; x64) AppleWebKit/537.36 (KHTML, like Gecko) Chrome/122.0.0.0 Safari/537.36" etag="0gFK5hHGkOTLNFTHdMgE" version="24.0.2" type="device">
  <diagram name="Page-1" id="5f4LoMYaHm7bFyVI4wLG">
    <mxGraphModel dx="1434" dy="780" grid="1" gridSize="10" guides="1" tooltips="1" connect="1" arrows="1" fold="1" page="1" pageScale="1" pageWidth="850" pageHeight="1100" math="0" shadow="0">
      <root>
        <mxCell id="0" />
        <mxCell id="1" parent="0" />
        <mxCell id="H25zya2E0vbEfZ1ggwzn-1" value="RegularPolygon" style="swimlane;fontStyle=0;childLayout=stackLayout;horizontal=1;startSize=26;fillColor=none;horizontalStack=0;resizeParent=1;resizeParentMax=0;resizeLast=0;collapsible=1;marginBottom=0;whiteSpace=wrap;html=1;" vertex="1" parent="1">
          <mxGeometry x="260" y="130" width="330" height="308" as="geometry" />
        </mxCell>
        <mxCell id="H25zya2E0vbEfZ1ggwzn-2" value="- n: int&lt;div&gt;- side: double&lt;/div&gt;&lt;div&gt;- x: double&lt;/div&gt;&lt;div&gt;- y: double&lt;/div&gt;" style="text;strokeColor=none;fillColor=none;align=left;verticalAlign=top;spacingLeft=4;spacingRight=4;overflow=hidden;rotatable=0;points=[[0,0.5],[1,0.5]];portConstraint=eastwest;whiteSpace=wrap;html=1;" vertex="1" parent="H25zya2E0vbEfZ1ggwzn-1">
          <mxGeometry y="26" width="330" height="74" as="geometry" />
        </mxCell>
        <mxCell id="H25zya2E0vbEfZ1ggwzn-13" value="" style="line;strokeWidth=1;fillColor=none;align=left;verticalAlign=middle;spacingTop=-1;spacingLeft=3;spacingRight=3;rotatable=0;labelPosition=right;points=[];portConstraint=eastwest;strokeColor=inherit;" vertex="1" parent="H25zya2E0vbEfZ1ggwzn-1">
          <mxGeometry y="100" width="330" height="8" as="geometry" />
        </mxCell>
        <mxCell id="H25zya2E0vbEfZ1ggwzn-3" value="+ RegularPolygon()&lt;div&gt;+ RegularPolygon(n: int, side: double)&lt;/div&gt;&lt;div&gt;+ RegularPolygon(n: int, side: double, x: double, y: double)&lt;/div&gt;&lt;div&gt;+ getN(): int&lt;/div&gt;&lt;div&gt;+ setN(n: int): void&lt;/div&gt;&lt;div&gt;+ getSide(): double&lt;/div&gt;&lt;div&gt;+ setSide(side: double): void&lt;/div&gt;&lt;div&gt;+ getX(): double&lt;/div&gt;&lt;div&gt;+ setX(x: double): void&lt;/div&gt;&lt;div&gt;+ getY(): double&lt;/div&gt;&lt;div&gt;+ setY(y: double): void&lt;/div&gt;&lt;div&gt;+ getPerimeter(): double&lt;/div&gt;&lt;div&gt;+ getArea(): double&lt;/div&gt;" style="text;strokeColor=none;fillColor=none;align=left;verticalAlign=top;spacingLeft=4;spacingRight=4;overflow=hidden;rotatable=0;points=[[0,0.5],[1,0.5]];portConstraint=eastwest;whiteSpace=wrap;html=1;" vertex="1" parent="H25zya2E0vbEfZ1ggwzn-1">
          <mxGeometry y="108" width="330" height="200" as="geometry" />
        </mxCell>
      </root>
    </mxGraphModel>
  </diagram>
</mxfile>
